<svg fill="#FFFFFF" xmlns="http://www.w3.org/2000/svg"  viewBox="0 0 24 24" width="96px" height="96px"><path d="M 12.003906 1.9902344 C 6.4992979 1.9902344 2.0069995 6.4828923 2.0058594 11.986328 C 2.0058594 17.490077 6.4992979 21.984375 12.003906 21.984375 C 17.508515 21.984375 22.001953 17.490077 22.001953 11.986328 C 22.001953 6.4825794 17.508515 1.9902344 12.003906 1.9902344 z M 12.003906 4.4902344 C 16.155298 4.4902344 19.501953 7.8360771 19.501953 11.986328 C 19.501953 16.136579 16.155298 19.484375 12.003906 19.484375 C 7.8525152 19.484375 4.5058594 16.136579 4.5058594 11.986328 C 4.5067192 7.8357642 7.8525151 4.4902344 12.003906 4.4902344 z M 8.0351562 7 C 7.3881562 7 6.9980469 7.427 6.9980469 8 C 6.9980469 8.56 7.38875 9 7.96875 9 C 8.61575 9 8.9980469 8.56 8.9980469 8 C 8.9980469 7.427 8.6151563 7 8.0351562 7 z M 6.9980469 10 L 6.9980469 16 L 8.9980469 16 L 8.9980469 10 L 6.9980469 10 z M 10.998047 10 L 10.998047 16 L 12.998047 16 L 12.998047 12.693359 C 12.998047 11.720359 13.872984 11.572266 14.083984 11.572266 C 14.294984 11.572266 14.998047 11.786359 14.998047 12.693359 L 14.998047 16 L 16.998047 16 L 16.998047 12.693359 C 16.998047 10.800359 16.049047 10 14.998047 10 C 13.947047 10 13.281047 10.346844 12.998047 10.839844 L 12.998047 10 L 10.998047 10 z"/></svg>